{"asset": {"version": "2.0", "generator": "BigWorldDreams"}, "scene": 0, "scenes": [{"nodes": [0]}], "nodes": [{"mesh": 0}], "meshes": [{"primitives": [{"attributes": {"POSITION": 1}, "indices": 0}]}], "accessors": [{"bufferView": 0, "byteOffset": 0, "componentType": 5123, "count": 3, "max": [2], "min": [0], "type": "SCALAR"}, {"bufferView": 1, "byteOffset": 0, "componentType": 5126, "count": 3, "max": [1.0, 1.0, 0], "min": [0, 0, 0], "type": "VEC3"}], "bufferViews": [{"buffer": 0, "byteOffset": 36, "byteLength": 6, "byteStride": 2, "target": 34964}, {"buffer": 0, "byteOffset": 0, "byteLength": 36, "byteStride": 12, "target": 34962}], "buffers": [{"byteLength": 42, "uri": "test.bin"}]}