o test

v 0.5 0.5 -0.5
v -0.5 0.5 -0.5
v -0.5 0.5 0.5
v 0.5 0.5 0.5
v 0.5 -0.5 0.5
v 0.5 -0.5 -0.5
v -0.5 -0.5 -0.5
v -0.5 -0.5 0.5
v 0.5 1.5 -0.5
v -0.5 1.5 -0.5
v -0.5 1.5 0.5
v 0.5 1.5 0.5
vn 0.0 1.0 0.0
vn 1.0 0.0 -0.0
vn -1.0 0.0 -0.0
vn 0.0 0.0 1.0
vn 0.0 0.0 -1.0
vn 0.0 -1.0 0.0

usemtl Default
f 1//1 2//1 3//1
f 3//1 4//1 1//1
f 1//2 4//2 5//2
f 5//2 6//2 1//2
f 3//3 2//3 7//3
f 7//3 8//3 3//3
f 4//4 3//4 8//4
f 8//4 5//4 4//4
f 2//5 1//5 6//5
f 6//5 7//5 2//5
f 7//6 6//6 5//6
f 5//6 8//6 7//6
f 9//1 10//1 11//1
f 11//1 12//1 9//1
f 9//2 12//2 4//2
f 4//2 1//2 9//2
f 11//3 10//3 2//3
f 2//3 3//3 11//3
f 12//4 11//4 3//4
f 3//4 4//4 12//4
f 10//5 9//5 1//5
f 1//5 2//5 10//5
f 2//6 1//6 4//6
f 4//6 3//6 2//6