o test

v 0.5 2.5 -0.5
v -0.5 2.5 -0.5
v -0.5 2.5 0.5
v 0.5 2.5 0.5
v 0.5 1.5 0.5
v 0.5 1.5 -0.5
v -0.5 1.5 -0.5
v -0.5 1.5 0.5
v 1.5 2.5 -0.5
v 1.5 2.5 0.5
v 1.5 1.5 0.5
v 1.5 1.5 -0.5
v 2.5 2.5 -0.5
v 2.5 2.5 0.5
v 2.5 1.5 0.5
v 2.5 1.5 -0.5
v 3.5 2.5 -0.5
v 3.5 2.5 0.5
v 3.5 1.5 0.5
v 3.5 1.5 -0.5
v 0.5 0.5 0.5
v -0.5 0.5 0.5
v -0.5 0.5 1.5
v 0.5 0.5 1.5
v 0.5 -0.5 1.5
v 0.5 -0.5 0.5
v -0.5 -0.5 0.5
v -0.5 -0.5 1.5
v 0.5 1.5 1.5
v 1.5 1.5 1.5
v 1.5 0.5 1.5
v 1.5 0.5 0.5
v 1.5 2.5 1.5
v 2.5 2.5 1.5
v 2.5 1.5 1.5
v 3.5 1.5 1.5
v 3.5 0.5 1.5
v 3.5 0.5 0.5
v 2.5 0.5 0.5
v 2.5 0.5 1.5
v -0.5 0.5 2.5
v 0.5 0.5 2.5
v 0.5 -0.5 2.5
v -0.5 -0.5 2.5
v 0.5 1.5 2.5
v 1.5 1.5 2.5
v 1.5 0.5 2.5
v 2.5 1.5 2.5
v 2.5 0.5 2.5
v 3.5 1.5 2.5
v 3.5 0.5 2.5
v -0.5 0.5 3.5
v 0.5 0.5 3.5
v 0.5 -0.5 3.5
v -0.5 -0.5 3.5
v 0.5 1.5 3.5
v 1.5 1.5 3.5
v 1.5 0.5 3.5
v 2.5 2.5 2.5
v 1.5 2.5 2.5
v 1.5 2.5 3.5
v 2.5 2.5 3.5
v 2.5 1.5 3.5
v 3.5 1.5 3.5
v 3.5 0.5 3.5
v 2.5 0.5 3.5
vn 0.0 1.0 0.0
vn 1.0 0.0 -0.0
vn -1.0 0.0 -0.0
vn 0.0 0.0 1.0
vn 0.0 0.0 -1.0
vn 0.0 -1.0 0.0

usemtl Default
f 1//1 2//1 3//1
f 3//1 4//1 1//1
f 1//2 4//2 5//2
f 5//2 6//2 1//2
f 3//3 2//3 7//3
f 7//3 8//3 3//3
f 4//4 3//4 8//4
f 8//4 5//4 4//4
f 2//5 1//5 6//5
f 6//5 7//5 2//5
f 7//6 6//6 5//6
f 5//6 8//6 7//6
f 9//1 1//1 4//1
f 4//1 10//1 9//1
f 9//2 10//2 11//2
f 11//2 12//2 9//2
f 4//3 1//3 6//3
f 6//3 5//3 4//3
f 10//4 4//4 5//4
f 5//4 11//4 10//4
f 1//5 9//5 12//5
f 12//5 6//5 1//5
f 6//6 12//6 11//6
f 11//6 5//6 6//6
f 13//1 9//1 10//1
f 10//1 14//1 13//1
f 13//2 14//2 15//2
f 15//2 16//2 13//2
f 10//3 9//3 12//3
f 12//3 11//3 10//3
f 14//4 10//4 11//4
f 11//4 15//4 14//4
f 9//5 13//5 16//5
f 16//5 12//5 9//5
f 12//6 16//6 15//6
f 15//6 11//6 12//6
f 17//1 13//1 14//1
f 14//1 18//1 17//1
f 17//2 18//2 19//2
f 19//2 20//2 17//2
f 14//3 13//3 16//3
f 16//3 15//3 14//3
f 18//4 14//4 15//4
f 15//4 19//4 18//4
f 13//5 17//5 20//5
f 20//5 16//5 13//5
f 16//6 20//6 19//6
f 19//6 15//6 16//6
f 21//1 22//1 23//1
f 23//1 24//1 21//1
f 21//2 24//2 25//2
f 25//2 26//2 21//2
f 23//3 22//3 27//3
f 27//3 28//3 23//3
f 24//4 23//4 28//4
f 28//4 25//4 24//4
f 22//5 21//5 26//5
f 26//5 27//5 22//5
f 27//6 26//6 25//6
f 25//6 28//6 27//6
f 11//1 5//1 29//1
f 29//1 30//1 11//1
f 11//2 30//2 31//2
f 31//2 32//2 11//2
f 29//3 5//3 21//3
f 21//3 24//3 29//3
f 30//4 29//4 24//4
f 24//4 31//4 30//4
f 5//5 11//5 32//5
f 32//5 21//5 5//5
f 21//6 32//6 31//6
f 31//6 24//6 21//6
f 14//1 10//1 33//1
f 33//1 34//1 14//1
f 14//2 34//2 35//2
f 35//2 15//2 14//2
f 33//3 10//3 11//3
f 11//3 30//3 33//3
f 34//4 33//4 30//4
f 30//4 35//4 34//4
f 10//5 14//5 15//5
f 15//5 11//5 10//5
f 11//6 15//6 35//6
f 35//6 30//6 11//6
f 19//1 15//1 35//1
f 35//1 36//1 19//1
f 19//2 36//2 37//2
f 37//2 38//2 19//2
f 35//3 15//3 39//3
f 39//3 40//3 35//3
f 36//4 35//4 40//4
f 40//4 37//4 36//4
f 15//5 19//5 38//5
f 38//5 39//5 15//5
f 39//6 38//6 37//6
f 37//6 40//6 39//6
f 24//1 23//1 41//1
f 41//1 42//1 24//1
f 24//2 42//2 43//2
f 43//2 25//2 24//2
f 41//3 23//3 28//3
f 28//3 44//3 41//3
f 42//4 41//4 44//4
f 44//4 43//4 42//4
f 23//5 24//5 25//5
f 25//5 28//5 23//5
f 28//6 25//6 43//6
f 43//6 44//6 28//6
f 30//1 29//1 45//1
f 45//1 46//1 30//1
f 30//2 46//2 47//2
f 47//2 31//2 30//2
f 45//3 29//3 24//3
f 24//3 42//3 45//3
f 46//4 45//4 42//4
f 42//4 47//4 46//4
f 29//5 30//5 31//5
f 31//5 24//5 29//5
f 24//6 31//6 47//6
f 47//6 42//6 24//6
f 35//1 30//1 46//1
f 46//1 48//1 35//1
f 35//2 48//2 49//2
f 49//2 40//2 35//2
f 46//3 30//3 31//3
f 31//3 47//3 46//3
f 48//4 46//4 47//4
f 47//4 49//4 48//4
f 30//5 35//5 40//5
f 40//5 31//5 30//5
f 31//6 40//6 49//6
f 49//6 47//6 31//6
f 36//1 35//1 48//1
f 48//1 50//1 36//1
f 36//2 50//2 51//2
f 51//2 37//2 36//2
f 48//3 35//3 40//3
f 40//3 49//3 48//3
f 50//4 48//4 49//4
f 49//4 51//4 50//4
f 35//5 36//5 37//5
f 37//5 40//5 35//5
f 40//6 37//6 51//6
f 51//6 49//6 40//6
f 42//1 41//1 52//1
f 52//1 53//1 42//1
f 42//2 53//2 54//2
f 54//2 43//2 42//2
f 52//3 41//3 44//3
f 44//3 55//3 52//3
f 53//4 52//4 55//4
f 55//4 54//4 53//4
f 41//5 42//5 43//5
f 43//5 44//5 41//5
f 44//6 43//6 54//6
f 54//6 55//6 44//6
f 46//1 45//1 56//1
f 56//1 57//1 46//1
f 46//2 57//2 58//2
f 58//2 47//2 46//2
f 56//3 45//3 42//3
f 42//3 53//3 56//3
f 57//4 56//4 53//4
f 53//4 58//4 57//4
f 45//5 46//5 47//5
f 47//5 42//5 45//5
f 42//6 47//6 58//6
f 58//6 53//6 42//6
f 59//1 60//1 61//1
f 61//1 62//1 59//1
f 59//2 62//2 63//2
f 63//2 48//2 59//2
f 61//3 60//3 46//3
f 46//3 57//3 61//3
f 62//4 61//4 57//4
f 57//4 63//4 62//4
f 60//5 59//5 48//5
f 48//5 46//5 60//5
f 46//6 48//6 63//6
f 63//6 57//6 46//6
f 50//1 48//1 63//1
f 63//1 64//1 50//1
f 50//2 64//2 65//2
f 65//2 51//2 50//2
f 63//3 48//3 49//3
f 49//3 66//3 63//3
f 64//4 63//4 66//4
f 66//4 65//4 64//4
f 48//5 50//5 51//5
f 51//5 49//5 48//5
f 49//6 51//6 65//6
f 65//6 66//6 49//6