{
    "asset": {
        "version": "2.0",
        "generator": "BigWorldDreams"
    },
    "scene": 0,
    "scenes": [
        {
            "nodes": [
                0
            ]
        }
    ],
    "nodes": [
        {
            "mesh": 0
        }
    ],
    "meshes": [
        {
            "primitives": [
                {
                    "attributes": {
                        "POSITION": 1,
                        "NORMAL": 2
                    },
                    "indices": 0
                }
            ],
            "name": "heightmap_test"
        }
    ],
    "accessors": [
        {
            "bufferView": 0,
            "byteOffset": 0,
            "componentType": 5123,
            "count": 324,
            "max": [
                322
            ],
            "min": [
                0
            ],
            "type": "SCALAR"
        },
        {
            "bufferView": 1,
            "byteOffset": 0,
            "componentType": 5126,
            "count": 324,
            "max": [
                1.5,
                2.5,
                1.5
            ],
            "min": [
                -0.5,
                -0.5,
                -0.5
            ],
            "type": "VEC3"
        },
        {
            "bufferView": 1,
            "byteOffset": 3888,
            "componentType": 5126,
            "count": 324,
            "max": [
                1.0,
                1.0,
                1.0
            ],
            "min": [
                -1.0,
                0.0,
                -1.0
            ],
            "type": "VEC3"
        }
    ],
    "bufferViews": [
        {
            "buffer": 0,
            "byteOffset": 7776,
            "byteLength": 648,
            "target": 34963
        },
        {
            "buffer": 0,
            "byteOffset": 0,
            "byteLength": 7776,
            "target": 34962,
            "byteStride": 12
        }
    ],
    "buffers": [
        {
            "byteLength": 8424,
            "uri": "heightmap_test.bin"
        }
    ]
}